<svg width="18" height="12" viewBox="0 0 18 12" fill="none" xmlns="http://www.w3.org/2000/svg">
<path d="M14.9328 1.99513C14.9328 1.16731 14.1826 0.48999 13.2656 0.48999H10.7648V1.99513H13.2656V3.98945L10.3647 7.26314H7.43042V3.50028H4.09602C2.25377 3.50028 0.761635 4.84738 0.761635 6.51057V8.76828H2.42883C2.42883 10.0176 3.54585 11.026 4.92962 11.026C6.31339 11.026 7.43042 10.0176 7.43042 8.76828H11.1649L14.9328 4.51625V1.99513ZM4.92962 9.52086C4.47114 9.52086 4.09602 9.1822 4.09602 8.76828H5.76322C5.76322 9.1822 5.3881 9.52086 4.92962 9.52086Z" fill="black"/>
<path d="M7.43042 1.24255H3.26242V2.74768H7.43042V1.24255Z" fill="black"/>
<path d="M14.9328 6.51056C13.549 6.51056 12.432 7.519 12.432 8.76826C12.432 10.0175 13.549 11.026 14.9328 11.026C16.3166 11.026 17.4336 10.0175 17.4336 8.76826C17.4336 7.519 16.3166 6.51056 14.9328 6.51056ZM14.9328 9.52083C14.4743 9.52083 14.0992 9.18218 14.0992 8.76826C14.0992 8.35435 14.4743 8.0157 14.9328 8.0157C15.3913 8.0157 15.7664 8.35435 15.7664 8.76826C15.7664 9.18218 15.3913 9.52083 14.9328 9.52083Z" fill="black"/>
</svg>
